<svg width="136" height="145" viewBox="0 0 136 145" fill="none" xmlns="http://www.w3.org/2000/svg">
<path d="M117.538 109.914C116.862 94.9916 117.749 65.1016 117.914 50.1656C118.05 37.7854 119.941 15.1051 99.1242 5.44795C63.145 -11.2449 24.72 15.7498 24.72 15.7498C73.3254 12.733 70.189 48.2874 70.189 48.2874V104.28C70.189 104.28 67.4839 144.59 100.251 144.112C130.446 143.673 135.82 121.789 135.82 121.789C117.272 127.788 117.743 114.447 117.538 109.916V109.914Z" fill="#7D2119"/>
<path d="M29.1458 100.727L29.9824 98.863C27.2544 97.6163 24.7675 96.2269 22.6268 94.7915L12.4447 117.462L4.46741 135.224C6.20132 137.539 8.41096 139.54 11.0291 141.064L29.1442 100.727H29.1458Z" fill="#7D2119"/>
<path d="M8.14193 115.531L12.0084 106.922L14.6905 100.951L18.78 91.8453C15.5222 88.945 13.9145 86.1317 14.7856 84.1911L1.95757 112.754C-0.612961 118.477 -0.565389 124.711 1.5934 130.111L8.14193 115.531Z" fill="#7D2119"/>
<path d="M32.0313 126.261L42.4348 103.094C39.8199 102.495 37.0476 101.662 34.3426 100.661L33.4453 102.659L15.3302 142.997C18.2091 143.942 21.1701 144.265 24.0523 144.024L32.0296 126.26L32.0313 126.261Z" fill="#7D2119"/>
<path d="M47.2231 103.95L42.8842 113.61L29.7855 142.777C35.2563 140.802 39.9512 136.696 42.5217 130.972L55.3497 102.41C54.605 104.066 51.4308 104.457 47.2231 103.95Z" fill="#7D2119"/>
<path d="M39.774 82.8148C46.8852 86.0087 53.3255 87.0848 54.1621 85.2213L53.4781 83.1003L47.7038 65.1574L30.4565 72.7607L28.4175 73.658C27.5808 75.5215 32.6661 79.6209 39.774 82.8132V82.8148Z" fill="#7D2119"/>
<path d="M38.3764 37.2441C38.3764 37.2441 38.3764 37.2425 38.3764 37.2408C38.3764 37.2343 38.3764 37.2261 38.3764 37.2195C38.3174 35.9351 38.0697 34.6375 37.6103 33.3645C35.153 26.5338 27.6251 22.9889 20.7945 25.4462C13.9638 27.9036 10.4188 35.4314 12.8762 42.2621C12.9008 42.3277 12.927 42.3917 12.9516 42.459H12.9484C17.658 57.5787 45.6894 51.1925 45.6894 51.1925C45.6894 51.1925 38.821 48.166 38.3764 37.2441Z" fill="#7D2119"/>
</svg>
